<svg id="logo_影像" data-name="logo 影像" xmlns="http://www.w3.org/2000/svg" viewBox="0 0 715.13 87.24"><defs><style>.cls-1{fill:#195998;}.cls-2{fill:#fff;}.cls-3{fill:#d33338;}.cls-4{fill:#5e5f61;}</style></defs><rect class="cls-1" width="30" height="87"/><rect class="cls-1" x="61.08" width="30" height="87"/><ellipse class="cls-2" cx="45.79" cy="44.58" rx="43.58" ry="17.38"/><ellipse class="cls-3" cx="45.79" cy="44.58" rx="40.95" ry="15.09"/><ellipse class="cls-2" cx="45.79" cy="44.58" rx="28.71" ry="13.5"/><path class="cls-4" d="M107.2,14a17.35,17.35,0,0,1-2.27,4.38,11.43,11.43,0,0,0-1.14-.8,12,12,0,0,0,2.07-4Zm2.71-1.54v7.63H108.3V12.5h-4.38V11.09h4.38V8.78h-4.49V7.39h6.07a29.66,29.66,0,0,0,1.19-3.47l1.5.3c-.4,1.06-.82,2.25-1.23,3.17h2.79V8.78h-4.22v2.31h4V12.5Zm3.89-8.72h-9.64V2.42h4.32c-.29-.66-.66-1.41-1-2L109.09,0a20.05,20.05,0,0,1,1.26,2.42h3.45ZM106.43,7.3a15.13,15.13,0,0,0-.84-3l1.3-.31a10.6,10.6,0,0,1,.9,3ZM112,13.53A23.21,23.21,0,0,1,113.87,17l-1.17.66a22.61,22.61,0,0,0-1.8-3.52ZM123.72,9h-2.39V20.11h-1.59V9h-3v.77c0,3.15-.29,7.46-2.29,10.32a5.45,5.45,0,0,0-1.26-1c1.85-2.64,2-6.4,2-9.33V2.22A34.7,34.7,0,0,0,122.05.51l1.3,1.21a35.15,35.15,0,0,1-6.62,1.58V7.48h7Z"/><path class="cls-4" d="M143.15,18.64c.86,0,1-.55,1.12-3.7a4.86,4.86,0,0,0,1.5.73c-.2,3.54-.64,4.48-2.49,4.48h-3.17c-1.93,0-2.48-.52-2.48-2.37V10h-4c-.42,4.8-1.52,8.38-7,10.19a5,5,0,0,0-1-1.39c5.13-1.54,5.94-4.64,6.29-8.8H126V8.45h8.84V.11h1.63V8.45h9.05V10h-6.25v7.75c0,.72.17.88,1,.88ZM130.43,7.19a23.28,23.28,0,0,0-2.59-5.45l1.47-.55A21.14,21.14,0,0,1,132,6.58Zm13.42-5.63a47.42,47.42,0,0,1-3,5.57l-1.37-.55A32.73,32.73,0,0,0,142.2,1Z"/><path class="cls-4" d="M160.4,11.82v1h5.23v7.34h-1.54V19.3H151.46v.85H150V12.81h5.5v-1h-7.75V10.67h20v1.15ZM149,1.83h-.68V.77H158V1.83H150.3v6c0,.79.22,1,1,1H156a14.82,14.82,0,0,0,2-.1c0,.35.09.79.15,1.07a9.53,9.53,0,0,1-2,.14h-4.8c-1.71,0-2.24-.6-2.24-2.2ZM154.68,6l0,0a17.16,17.16,0,0,1,2.75,1.87l-.7.77a19.79,19.79,0,0,0-2.42-1.79,5.08,5.08,0,0,1-2.64,1.92,3.42,3.42,0,0,0-.73-.84,3.58,3.58,0,0,0,2.58-2h-2.73V5h2.93V3.83h-1.35a6.22,6.22,0,0,1-.83,1,5,5,0,0,0-.9-.53,6.7,6.7,0,0,0,1.6-2.4l1,.27a7.71,7.71,0,0,1-.33.74h4.37v.93h-2.48V5h2.88V6Zm9.41,12.35V15.82H161c-1.56,0-1.95-.24-1.95-1.39V13.8h-2.36c-.24,1.07-1.27,1.93-4.4,2.44a3.76,3.76,0,0,0-.72-1c2.55-.29,3.47-.86,3.76-1.47h-3.9v4.51Zm-10.73-1.76h9.15v.94h-9.15Zm5.72-4.73h-2.31v1h2.31ZM158.59,5a4,4,0,0,0-.9-1c1.65-.66,2-1.4,2-2.17V.7h5.24V2.75c0,.42,0,.53.3.53h1a5.21,5.21,0,0,0,.9-.07c0,.31.07.79.11,1.1a3.87,3.87,0,0,1-1,.09H165c-1.19,0-1.44-.46-1.44-1.67V1.89H161a3.19,3.19,0,0,1-2,3h6l.27-.07.81.38a8.2,8.2,0,0,1-2.27,2.95c1.06.48,2.05,1,2.75,1.38l-.63,1c-.77-.46-1.92-1.05-3.15-1.65a13.9,13.9,0,0,1-3.94,1.63,5.06,5.06,0,0,0-.7-1,14.94,14.94,0,0,0,3.32-1.19c-.9-.44-1.83-.86-2.64-1.19l.59-.86c1,.38,2.07.86,3.17,1.34A7.35,7.35,0,0,0,164.2,5.9h-5.52V5Zm1.81,8.78v.63c0,.44.11.51.77.51h2.51a2.13,2.13,0,0,0,.41,0V13.8Z"/><path class="cls-4" d="M174.34,3.56V9.2c0,3.34-.44,8-3.14,11a5.34,5.34,0,0,0-1.13-1.1,11.73,11.73,0,0,0,2.58-6.73c-.88.57-1.78,1.1-2.64,1.58l-.55-1.45c.86-.39,2-1,3.32-1.69,0-.57,0-1.1,0-1.65V2.13h7.73c-.18-.55-.4-1.18-.58-1.69l1.59-.35a19.22,19.22,0,0,1,.75,2h7.48V3.56Zm-3.19,5.28a42.32,42.32,0,0,0-1.36-4.33L171,4.05a37.48,37.48,0,0,1,1.43,4.2Zm17.94-1.09a15.45,15.45,0,0,1-1.83,1.56A10.18,10.18,0,0,0,190,10.8,6.42,6.42,0,0,0,189,12a10.47,10.47,0,0,1-1.85-1.06v4.38H183v3.35c0,.79-.16,1.14-.77,1.38a9.84,9.84,0,0,1-2.93.22,5,5,0,0,0-.53-1.34c1.08,0,2,0,2.27,0s.37-.07.37-.31v-3.3h-4.09V11a19.59,19.59,0,0,1-1.87,1.1,3.61,3.61,0,0,0-1-1.08,14.67,14.67,0,0,0,2.75-1.67,17.15,17.15,0,0,0-1.72-1.39l.88-.75a13.69,13.69,0,0,1,1.76,1.32,9.44,9.44,0,0,0,1.43-1.65h-4.16V5.54h5a8.55,8.55,0,0,0,.75-1.89l1.54.22a16.62,16.62,0,0,1-.67,1.67h7.57v1.3h-4.7a8.89,8.89,0,0,0,1.6,1.78A15.29,15.29,0,0,0,188.07,7Zm-10,8.47a26,26,0,0,1-3.48,3.54,15.12,15.12,0,0,0-1.25-1,18.82,18.82,0,0,0,3.3-3.06Zm6.54-5.77h-7v1.34h7Zm0,2.38h-7v1.38h7Zm-.42-3.46a12.55,12.55,0,0,1-2-2.53h-2.07a11.81,11.81,0,0,1-2,2.53Zm.63,6.34c1.13,1,2.65,2.46,3.42,3.34l-1.24.82a47,47,0,0,0-3.34-3.48Z"/><path class="cls-4" d="M195.79,15.56a14.25,14.25,0,0,1-2.92,4.66,11.25,11.25,0,0,0-1.32-1,10.6,10.6,0,0,0,2.68-4.09Zm4.6-.88h-7.68V1h7.68ZM198.81,2.33h-4.56V5.1h4.56Zm0,4.07h-4.56V9.2h4.56Zm0,4.1h-4.56v2.86h4.56Zm-.18,4.66a17.55,17.55,0,0,1,2.4,3.5l-1.39.72a20.73,20.73,0,0,0-2.31-3.6Zm13.18-8.32H209V18.15c0,1-.25,1.45-.86,1.74a9.63,9.63,0,0,1-3.3.33,5.56,5.56,0,0,0-.57-1.58c1.23,0,2.3,0,2.63,0s.49-.11.49-.49V9a22.06,22.06,0,0,1-5.68,7.78,6.84,6.84,0,0,0-1.12-1.21c2.47-1.73,4.82-5.21,6.21-8.69h-5.73V5.32h6.32V.2H209V5.32h2.81Z"/><path class="cls-4" d="M232.58,1.12v19H231v-1H216.43v1.14h-1.52V1.12ZM231,17.76V2.42H216.43V17.76Zm-.73-3.61h-3.15v2c0,.64-.13.86-.63,1a11,11,0,0,1-2.62.15,4,4,0,0,0-.38-.92c.88,0,1.7,0,1.92,0s.33-.07.33-.29v-2h-8.58v-1h8.58v-.82h1.38v.82h3.15ZM223,4.84h-5.52v-1H223v-1h1.39v1H230v1h-5.63v.88h4.86v4.42h-1.76a12.14,12.14,0,0,1,2.38,2.16l-.93.68a11.37,11.37,0,0,0-.88-1c-3.8.14-7.74.25-10.47.29l-.06-1c1.47,0,3.38,0,5.47,0v-1.1H218.3V5.72H223Zm-2.39,9.42a9.28,9.28,0,0,1,2,2l-1.12.66a9.19,9.19,0,0,0-1.89-2.09Zm-1-6.74H223V6.58H219.6ZM223,9.31v-1H219.6v1Zm1.39-2.73v.94h3.5V6.58Zm3.5,1.76h-3.5v1h3.5Zm-.79,2.82a4.06,4.06,0,0,0-.51-.42l.86-.6h-3.06v1.08Z"/><path class="cls-4" d="M239.79,9.83a20.92,20.92,0,0,0-4.07-2.37l.88-1.19a20.1,20.1,0,0,1,4.1,2.2Zm-3.32,9a63.76,63.76,0,0,0,4.16-7l1.19,1.08c-1.15,2.31-2.69,5-4,7.06ZM237.79.35A22.09,22.09,0,0,1,242,2.64L241,4a21.23,21.23,0,0,0-4.12-2.46Zm16.13,19.83a18.84,18.84,0,0,0-1-2.18c-8.17,1-9.09,1.16-9.68,1.45a13.62,13.62,0,0,0-.55-1.63c.41-.11.85-.64,1.4-1.43a35.89,35.89,0,0,0,3-5.45h-4.91V9.37h5.66V5.46h-4.69V3.89h4.69V.11h1.63V3.89h4.86V5.46H249.5V9.37h5.78v1.57h-6.22a44.08,44.08,0,0,1-3.88,6.51l7-.77a32.23,32.23,0,0,0-2-2.84l1.3-.62a28.77,28.77,0,0,1,3.89,6.23Z"/><path class="cls-4" d="M268.61.2c0,.79,0,1.89-.15,3.19.33,2.62,1.65,11.81,9.42,15.27A5,5,0,0,0,276.69,20c-5.5-2.57-7.86-8-8.91-12.1-1,4.4-3.35,9.33-8.72,12.19a4.72,4.72,0,0,0-1.32-1.27c9.14-4.62,9-15.32,9.07-18.66Z"/><path class="cls-4" d="M578.85,26.34V87H571V84.62H528.59V87h-7.41V26.34ZM571,78.08V32.94H528.59V78.08Zm-2-30.25v4.38H530.89V47.83h15.35v-2h-9.9V35.1h26.88V45.81H553v2Zm-35,6.34h31.6V75.86H534Zm6.13,17.24h19V58.54h-19Zm2.57-29.57h13.8v-2.7h-13.8Zm.2,18.66h13.67v9H542.88Zm4.24,5.59H552V63.93h-4.85Z"/><path class="cls-4" d="M621,48v2.35h21.56v4.85H621v2.43h26.48v5.59H587V57.67h25.94V55.24H591.72V50.39h21.22V48H593.2V43.39h19.74V40.83H587.07V35.3h25.87V32.81h-19V28.16h19V23.92h8v4.24h18.8V35.3h7.68v5.53h-7.68V48ZM595.42,65.35h44.66V87.18H632v-2H603.17v2h-7.75Zm7.75,5.12v2.42H632V70.47ZM632,80.17V77.54H603.17v2.63ZM621,35.3H631.8V32.81H621Zm0,8.09H631.8V40.83H621Z"/><path class="cls-4" d="M690,60.77v4h22.57v22h-7V84.68H690V87h-7.07v-43h-3.44V33.35l-2.56,4.78c-2.16-1.41-6.13-3.5-9.57-5.25-1.14,1.34-2.22,2.63-3.5,3.9h10.51V42H662.51V38.13a45.68,45.68,0,0,1-6.8,5.53,58.19,58.19,0,0,0-3.1-7.21c5.19-3,10.51-8,13.41-13.21l6.26,2.29c-.33.68-.74,1.28-1.08,2,3,1.35,6.54,3,8.63,4.24h14.62c-.88-1.82-2-3.77-2.83-5.45l7.07-2.83c1.35,2.22,3,5.18,4,7.2l-2.29,1.08h14.76v12.2H709.6V60.77Zm-16.64,8.35a144.8,144.8,0,0,1,6.4,13.14L674,85.15c-.47-1.34-1.14-3-1.88-4.78-12,4.45-14.08,5.39-15.5,6.54a21.17,21.17,0,0,0-2.56-6.61,4.06,4.06,0,0,0,2.7-4V44.46h20.75V68.58H663.59v8.29l6-2c-.61-1.22-1.15-2.36-1.69-3.37Zm-9.77-18.86v3.43h6.94V50.26Zm6.94,12.6V59.22h-6.94v3.64Zm15.56-24.8v4.25h22.1V38.06ZM702.8,48.64H690v5.79h12.8ZM690,71.41V78h15.56V71.41Z"/><path class="cls-3" d="M55.53,51c-.72,0-1.44.19-2.16.22-1.06,0-1.58-.5-1.5-1.4.05-.6,0-1.21,0-1.81s.14-1.21,1-1.15c.51,0,1,0,1.53.1,1.12.16,1.57-.16,1.59-1.25,0-.85,0-1.71,0-2.56s-.31-1.2-1.2-1.18c-2,0-4,0-6,0-1,0-1.36-.39-1.28-1.39.14-1.74.21-3.49.25-5.25,0-.85-.51-1.26-1.35-1.33-2.37-.2-3.21,0-3.24,1a48.27,48.27,0,0,0,0,5.38c.11,1.42-.08,1.83-1.52,1.8S38.77,42,37.33,42c-2.79,0-2.42-.36-2.44,2.46,0,2.35-.22,2.19,2.12,2.14,1.12,0,1.6.45,1.48,1.53a7.37,7.37,0,0,1-1.83,4.57,17,17,0,0,0-1.46,2.06l.42.49c1.05-.36,2.08-.8,3.15-1.06,3.1-.74,4.32-3.16,5.08-5.83.52-1.79.35-1.78,2.19-1.78,1,0,1.25.38,1.22,1.3-.06,1.7,0,3.42,0,5.13,0,.91.4,1.32,1.31,1.31,1.37,0,2.75,0,4.12,0,1.64.06,3-.35,3.68-2,.13-.32.23-.66.34-1A3.87,3.87,0,0,0,55.53,51Z"/><path class="cls-3" d="M38.37,40.3c2.89.51,3,.61,2.44-2.25-.32-1.76-2.11-3.57-3.52-3.53-1,0-2.41,1.63-2.07,2.42C35.85,38.41,36.28,39.93,38.37,40.3Z"/><path class="cls-3" d="M51.62,40.43a3.16,3.16,0,0,1,.71-.25,3.38,3.38,0,0,0,2.89-3,2.14,2.14,0,0,0-3-2.29c-1.86.83-2.13,2.59-2.41,3.94C49.81,40.74,50.2,41,51.62,40.43Z"/><path class="cls-4" d="M308.74,30.84c.23-3.34.23-3.34,3.5-3.34,4.21,0,8.41,0,12.61,0a3.15,3.15,0,0,1,1.71.31c.55.42,1.27,1.23,1.18,1.73a1.71,1.71,0,0,1-1.82,1.57c-1.45-.1-2.92,0-4.37,0-.8,0-1.19.19-1.17,1.07.1,4-.58,3.23,3.17,3.29,2.53,0,2.49,0,2.52,2.6,0,1.91.23,3.82.22,5.72,0,2.3-.19,4.6-.23,6.9,0,2.53-.09,5.07,0,7.6a3.58,3.58,0,0,1-1.65,3.48c-1.16.65-2.47.14-3.78-1.23-.12.79-.23,1.24-.26,1.71s0,1,0,1.54c0,2,0,2-2,2-1.7,0-2-.47-1.86-2.19.13-1.89,0-3.79,0-5.68,0-.85.17-1.69.17-2.53,0-1-.18-2.1-.17-3.15,0-2.46.15-4.93.21-7.39,0-1.25.07-2.5,0-3.74a1.53,1.53,0,0,0-.6-1.13,1.39,1.39,0,0,0-1.26.16c-.26.22-.29.79-.31,1.21s.13.83.13,1.25q0,8.4,0,16.81a3.43,3.43,0,0,1-.05,1c-.28.87-.46,1.86-1.74,1.76a2.09,2.09,0,0,1-2-2c0-3.54.16-7.07.19-10.61,0-2.17-.1-4.34-.14-6.51s-.08-4.53,0-6.79c0-.28.63-.75,1-.78,1.15-.1,2.32,0,3.47-.08.47-.05,1.19-.49,1.26-.86a11.18,11.18,0,0,0,.07-3c0-.18-.48-.48-.74-.49-2.26,0-4.53,0-7,0,.12,1.29.28,2.45.32,3.61.06,1.46,0,2.93,0,4.39s0,2.74,0,4.11S309,45,307.52,45s-3,0-4.5,0c-.8,0-1.24.19-1.17,1.08s-.27,2,1.12,2c1.61,0,3.23-.15,4.85-.1.42,0,1.16.54,1.19.87.14,1.67.1,3.35.12,5,0,1,0,2,.05,2.92,0,1.41.15,2.82.08,4.22,0,.92-.75,1.05-1.59,1-1.54-.09-3.09-.06-4.63-.06-1,0-1.37.46-1.11,1.45.39,1.49.09,1.87-1.41,1.88-2.52,0-2.52,0-2.52-2.43V33.68c0-.3,0-.6,0-.9-.13-2-.08-2.07,1.94-1.88.9.08,1-.43,1.12-1.09,0-.07-.08-.15-.08-.23.1-1-.17-2.61.41-3,.76-.56,2.18-.31,3.31-.25.27,0,.66.64.73,1a5.92,5.92,0,0,1,0,2.18c-.26,1.22.27,1.46,1.32,1.36C307.38,30.79,308,30.84,308.74,30.84Zm13.45,10,.3,0c-.09-.18-.12-.47-.26-.54-.4-.19-.88-.48-1.24-.38s-.57.67-.57,1c0,4.28,0,8.55-.05,12.82,0,1-.4,2,.91,2.49.28.1.71.24.87.11a1.25,1.25,0,0,0,.26-.89c0-.71-.2-1.42-.21-2.12C322.18,49.17,322.19,45,322.19,40.84Zm-20.07-2.93-.13,0c.13.63.09,1.64.44,1.8a3.72,3.72,0,0,0,2.44.21c.78-.22.69-1,.36-1.73a.91.91,0,0,1,0-.63c.35-1,.28-1.77-1-1.86-1.94-.15-2.1,0-2.11,1.67Zm3.08,17.24a3.78,3.78,0,0,0,0-1.39c-.19-.42-.64-1-1-1-1.73-.19-2,.15-2,2,0,.34,0,.68,0,1,0,1.5.23,1.7,2.07,1.69,1.14,0,1-.86,1-1.62C305.2,55.57,305.21,55.36,305.2,55.15Z"/><path class="cls-4" d="M213.17,55H202.7c-1.2,0-2.41.05-3.6,0-.34,0-.91-.46-.91-.72,0-1.26.11-2.52.19-3.86,5.21,0,10.31,0,15.41,0,.45,0,1.2-.25,1.28-.53a5.84,5.84,0,0,0,.15-2.46c0-.18-1-.32-1.49-.32-3.65,0-7.29,0-10.94-.06a1.56,1.56,0,0,1-1-1.13c0-2.89.16-5.78.19-8.67,0-2.21-.12-4.43-.13-6.64A2.59,2.59,0,0,1,203.47,28c1-.48,2.89,1,2.9,2.36,0,3.59.06,7.19,0,10.78,0,1.23.38,1.56,1.54,1.49,2.47-.15,4.94-.22,7.41-.26q4-.07,7.91,0c2,0,3.93.17,5.89.23a3.79,3.79,0,0,0,1.25-.15c1.53-.43,2.74.29,2.56,1.92a45.7,45.7,0,0,0-.25,4.68c0,.8.39,1.27,1.35,1.3a9.61,9.61,0,0,1,3.57.52A2.89,2.89,0,0,1,238.94,53c0,1.14-1.18,1.94-2.35,1.94H223.43c.39,2.86,7.46,6.5,13.64,7a3.92,3.92,0,0,1-.39.87c-.73.93-1.49,1.83-2.23,2.75-1.07,1.34-2.41.58-3.53.28a24.14,24.14,0,0,1-11.44-6.71c-.54-.56-1.06-1.41-1.7-1.52-.41-.07-1,.94-1.54,1.47a32,32,0,0,1-10,6.69c-.73.32-1.47.6-2.21.87-.23.08-.66.16-.73.06-.79-1.13-1.55-2.27-2.23-3.46a2.48,2.48,0,0,1,1.06-.84c2.35-.73,4.77-1.31,6.76-2.85,1.38-1.08,2.66-2.29,3.93-3.49C213,55.91,213,55.47,213.17,55Zm11.46-4.62a16.25,16.25,0,0,0,2.42,0c.43-.06,1.15-.48,1.14-.72,0-.94.56-2.08-.61-2.77a.73.73,0,0,0-.37,0c-1.66,0-3.33,0-5,.05-.37,0-1,.31-1,.52a7,7,0,0,0,.16,2.59c.07.26,1,.33,1.51.39A15.25,15.25,0,0,0,224.63,50.36Z"/><path class="cls-4" d="M150.78,41.11c1,0,2,0,2.9,0l8.69-.25c.52,0,1,0,1.55,0,.81,0,1.87.27,2.36-.13s.17-1.49.2-2.28c.09-2.37.2-4.75.25-7.13,0-.67-.2-1.33-.21-2a5.86,5.86,0,0,1,.24-1.48c.06-.23,3.55-.83,3.83-.53a2.55,2.55,0,0,1,.75,1.56c.06,3.59,0,7.19,0,10.78,0,1.42.12,1.33,1.51,1.29,2.81-.08,5.63.1,8.44.13,2.31,0,4.63.08,6.93,0a3,3,0,0,1,3,1.87c.42,1.21-.57,1.83-1.35,2.26a6.37,6.37,0,0,1-2.35.34,21.45,21.45,0,0,1-2.52.23c-1.66,0-3.31-.17-5-.23a12.72,12.72,0,0,0-3,0,1.67,1.67,0,0,0-1.07,1.18c-.1,2.88-.06,5.75-.06,8.63,0,1.28,0,2.57,0,3.86,0,1,.24,1.49,1.37,1.44,1.92-.08,3.85,0,5.78,0A2.76,2.76,0,0,0,186,58.7a2.53,2.53,0,0,1,2.75-1.94,2.31,2.31,0,0,1,2.24,2A7.6,7.6,0,0,1,190,62.69a4.94,4.94,0,0,1-5.06,2.61c-3.21-.18-6.43,0-9.65-.07-1.37,0-2.92,0-3.53-1.61a9.86,9.86,0,0,1-.57-3.15c-.07-2.06,0-4.12,0-6.19,0-2.48,0-5,0-7.46,0-1.31-.25-1.52-1.49-1.24a1.94,1.94,0,0,1-.61.12c-1.74-.19-1.73-.19-1.76,1.52-.05,2.74.4,5.56-.79,8.15a16.64,16.64,0,0,1-2.54,4.27,34.78,34.78,0,0,1-9.55,7.67,2.7,2.7,0,0,1-3.31-1c-1.05-1.65-.71-2.56,1-3.7a51.65,51.65,0,0,0,6.73-4.86,13,13,0,0,0,4.08-11.21c-.09-1-.78-1.19-2-1.13-2.24.11-4.49,0-6.73,0-.82,0-1.64,0-2.46,0s-.92-.43-.9-1.1C150.81,43.4,150.78,42.37,150.78,41.11Z"/><path class="cls-4" d="M478.39,31.56c-.55.53-1,.77-1.14,1.13-.78,2-1.54,4-2.17,6a2.33,2.33,0,0,0,.27,1.77c1.75,2.52,3.21,5.22,3.23,8.28,0,4.12-2.62,7.07-7.08,7.55a4.51,4.51,0,0,1-.9,0c-.89-.09-1.23.25-1.21,1.17.05,1.92,0,3.85,0,5.77,0,1-.35,1.39-1.35,1.3a14,14,0,0,0-2.05,0c-1,0-1.21-.62-1.21-1.4,0-4.2-.06-8.41,0-12.61,0-2.63.2-5.26.21-7.9s-.13-5.39-.2-8.09c0-.17,0-.34,0-.51V25.19c4,0,7.71-.07,11.38,0a2.94,2.94,0,0,1,2.57,3.45c-.09.64.08,1.15.92,1.15,2.7,0,5.41,0,8.11,0,.73,0,1-.32,1-1,0-1.49,0-3,0-4.59,1.22-.1,2.39-.26,3.56-.27.74,0,1.24,1.19,1.07,2.25a7.31,7.31,0,0,0-.13,1.33c0,.69-.22,1.78.11,2a4.73,4.73,0,0,0,2.32.3c2.19,0,4.38,0,6.57,0,1,0,1.49.42,1.43,1.45-.1,1.66-.18,3.32-.25,5,0,.37.16.75.15,1.12a5.34,5.34,0,0,1-.15,1.84c-.53,1.43-1.48,2.1-2.49,1.92a2.94,2.94,0,0,1-2.14-2.92,24,24,0,0,1,.24-2.53c.18-1.37-.43-1.94-1.76-1.63a5.28,5.28,0,0,1-1.25.15c-3.39,0-6.78,0-10.16,0a6.4,6.4,0,0,1-1.37-.21c-1-.2-1.51.34-1.4,1.32a32.11,32.11,0,0,1,.22,3.79,1.18,1.18,0,0,1-1.36,1.29c-4.49,0-3.74.09-3.75-3.66C478.17,35.14,478.3,33.57,478.39,31.56Zm-6.77-1.49c-2.45,0-2.21-.25-2.21,2.18V49.81c0,2.14,0,2.14,2.16,2.09a3.17,3.17,0,0,0,3.2-3.64,14.6,14.6,0,0,0-1.32-3.47c-.9-1.79-1.95-3.5-2.9-5.26a1.23,1.23,0,0,1-.12-.89c.93-2.22,1.85-4.45,2.9-6.62.76-1.58.63-2-1.07-2Z"/><path class="cls-4" d="M117.54,58.66a14.76,14.76,0,0,1,.28,2.06c0,1.1-.16,2.2-.23,3.29a5,5,0,0,0,0,1.28c.43,2.17.14,2.53-2.09,2.53h-1.28c-.92,0-1.34-.41-1.3-1.32.09-2.33.18-4.66.24-7a5.8,5.8,0,0,0-.3-1.2l-1.43,1.38c-1.49,1.4-2.95,2.84-4.49,4.18-.45.39-1.32.88-1.68.7-1.1-.55-2.58-1-2.34-2.7a3.67,3.67,0,0,1,.92-2c2.06-2,4.22-4,6.33-5.94a2.62,2.62,0,0,0,.4-.84,4.12,4.12,0,0,0-.82-.21c-1.24,0-2.48.08-3.72,0a1.09,1.09,0,0,1-.79-.71,20.49,20.49,0,0,1,0-3.59c0-.3.63-.75,1-.76,1.93-.08,3.86-.06,5.79,0,.78,0,1.28-.19,1.14-1.07s-.39-1.31-1.4-1.24c-2.2.15-4.42.21-6.63.19-.32,0-.83-.66-.93-1.08a9.81,9.81,0,0,1,0-2.17c0-1.58.38-1.87,1.92-1.52a4.33,4.33,0,0,0,1,.19c1,0,1.42-.41,1.14-1.42-.23-.84-.46-1.68-.65-2.53A1.67,1.67,0,0,0,106,35.67c-.28,0-.67-.57-.71-.92-.1-.88,0-1.79-.05-2.69-.1-1.11.47-1.26,1.4-1.23,1.81.05,3.62,0,5.43,0,.85,0,1-.43.95-1.21-.18-1.8.13-2.13,1.89-2.13.51,0,1,0,1.54,0,1.14.07,1.57.67,1.3,1.76-.3,1.26-.1,1.54,1.17,1.56q2.27,0,4.53,0c1,0,1.41.41,1.37,1.38a8.19,8.19,0,0,1,0,1.79,3,3,0,0,1-.94,1.72c-1.72,1.05-1.9,3-2.76,4.52-.35.62.62.92,1.3.86a11.63,11.63,0,0,1,1.74-.21c.33,0,.9.35.93.59a23.29,23.29,0,0,1,.15,3.64c0,.22-.64.58-1,.58-1.7,0-3.41-.12-5.11-.1-.63,0-1.46-.06-1.52,1s.46,1.2,1.33,1.17c1.46,0,2.92,0,4.38,0,.84,0,1.28.37,1.26,1.23v.64c0,4,.41,3.17-3.75,3.26-.37,0-.73.08-1.1.12a7.48,7.48,0,0,0,.76.91c1,.94,2.13,1.83,3.12,2.81a1.19,1.19,0,0,1,.18,1.13,26.46,26.46,0,0,1-1.84,2.41c-.6.75-1.2.83-1.9.06s-1.36-1.33-2-2Zm-2.17-22.94c-.73,0-1.46,0-2.19,0s-1.12.36-1,1.09a18.31,18.31,0,0,0,.67,3,2.21,2.21,0,0,0,3.77.5,19.57,19.57,0,0,0,1.65-3.49c.27-.68,0-1.16-.86-1.13C116.74,35.74,116.05,35.72,115.37,35.72Z"/><path class="cls-4" d="M423.6,57.15c0-2,0-4.11,0-6.16,0-.8.21-1.19,1.09-1.16,2.77.1,5.54.17,8.31.19a1.56,1.56,0,0,0,1-.55.93.93,0,0,0-.07-.91,1.75,1.75,0,0,0-1.09-.48c-3.88.05-7.76.18-11.64.19-1.14,0-1.52-.86-1.22-2.54.17-1,.79-1,1.7-.85a13.9,13.9,0,0,0,2.82.08h33.23c1.25,0,2.42.81,2.36,1.63s-1.39,1.7-2.43,1.7c-3.39,0-6.78,0-10.17,0a2.24,2.24,0,0,0-1.15.34.82.82,0,0,0,0,.79,1.66,1.66,0,0,0,1,.38c2.7,0,5.4.06,8.1,0,1.2,0,1.61.52,1.61,1.58,0,3.94,0,7.88,0,11.82a2.75,2.75,0,0,1-2.43,2.52,2.4,2.4,0,0,1-2.41-1.66,1.57,1.57,0,0,0-1.8-1.15q-10.23,0-20.46,0a1.58,1.58,0,0,0-1.84,1.25,3.07,3.07,0,0,1-2.24,1.59c-1.18.11-2.25-1.36-2.27-2.58C423.58,61.18,423.6,59.16,423.6,57.15Zm26.45-1.4h-5.22c-1.27,0-1.86-.53-1.91-1.81,0-.8-.35-1-1.09-1-1,0-2.06,0-3.09,0s-1.35.27-1.25,1.24a1.61,1.61,0,0,1-1.6,1.79,22.37,22.37,0,0,1-4.55-.24c-.39,0-.7-.65-1-1,.36-.25.69-.64,1.09-.71.61-.12,1.28,0,1.91-.06.26,0,.49-.33.72-.51-.19-.24-.39-.7-.58-.69-1.65.06-3.29.21-4.93.33,0,.94,0,1.87,0,2.81a4.34,4.34,0,0,1,0,.51c-.08,1.1-.21,2.19-.22,3.28a1.17,1.17,0,0,0,.58.92,9,9,0,0,0,2.25.3c5.83,0,11.65,0,17.48,0,1.11,0,2.22-.21,3.34-.32v-5.3c0-2,0-2-2-2.34-.16,0-.31-.17-.46-.17-1.08,0-2.27-.53-3.46.89a9.86,9.86,0,0,0,2.25.28C449.88,53.71,450.15,53.91,450.05,55.75Zm-11.49-7.4-.15-.4-1.14,1.11c.38.26.74.7,1.15.75a20.16,20.16,0,0,0,3.64.2c.37,0,.71-.65,1.07-1-.38-.33-.74-.91-1.13-.92A28.57,28.57,0,0,0,438.56,48.35Z"/><path class="cls-4" d="M369.29,37.39c0,3,0,6.08,0,9.12a2.17,2.17,0,0,1-1.53,2.36c-1.1.32-2.41.71-3.3-.4A3.85,3.85,0,0,0,360.79,47a38.21,38.21,0,0,1-3.86,0c-.84,0-1.34.24-1.3,1.24.12,2.81.16,5.61.24,8.42,0,.79-.19,2,.21,2.29a5.28,5.28,0,0,0,2.68.36c2.1.05,4.2,0,6.3,0s3-.81,2.9-2.77c-.07-1.52.6-1.65,1.82-1.62,2.82.06,2.82,0,2.33,2.79-.25,1.36-.51,2.71-.77,4.07s-2,2.52-4,2.41-3.83-.25-5.74-.24c-2.47,0-4.94.13-7.41.24A3.15,3.15,0,0,1,351,61.3c-.08-2.29-.23-4.58-.24-6.88,0-1.78.22-3.56.22-5.34s-.19-3.3-.23-5,.12-1.72,1.78-1.72c3.17,0,6.35,0,9.52,0,1.17,0,1.6-.43,1.57-1.59-.05-2.43,0-4.87,0-7.31,0-1-.32-1.42-1.41-1.41-4.29.06-8.57,0-12.86,0-1.73,0-1.75-.07-1.48-1.8a4.76,4.76,0,0,0-.06-2.16c-.36-1.08.17-1.17,1-1.17,3.82,0,7.63,0,11.45,0,2.69,0,5.38-.17,8.07-.22.7,0,1,.38,1,1.14C369.27,31.06,369.29,34.23,369.29,37.39Z"/><path class="cls-4" d="M135.87,59.94c0-2.87,0-5.74,0-8.6,0-1.27.2-2.53.22-3.8,0-1.79-.18-1.91-1.95-1.86-.74,0-1.67-.71-2.1.32a6.78,6.78,0,0,0-.06,2.17c-.17,3.56-.14,7.15-.6,10.67-.31,2.4-2.37,3.92-4.06,5.53-.83.79-1.76,1.48-2.53,2.32s-1.23.75-1.84,0-1-1.24-1.57-1.84c-.74-.82-.55-1.32.28-2,2.47-2.07,4.87-4.27,5.38-7.65a33,33,0,0,0-.19-4.31c0-6,.17-12,.24-17.92,0-2.81,0-2.82,2.6-3.76,2-.72,4-1.48,6-2.09a2.08,2.08,0,0,1,2.73,1A8.71,8.71,0,0,0,140,29.82c.63.62.53,1.19-.21,1.46a55.17,55.17,0,0,1-5.72,1.84c-1.73.43-2.32,1.18-2.13,3a11.08,11.08,0,0,1-.16,3c-.24,1.42.13,2,1.62,2,1.91,0,3.82-.18,5.74-.24,1.42,0,2.84,0,4.26,0,1.24.05,2.2,1.66,2,3.18a2.5,2.5,0,0,1-2.62,1.66c-2-.4-2.45.09-2.05,2a5,5,0,0,1,0,1c0,4.58,0,9.16,0,13.74,0,1.34,0,2.67,0,4,0,.91-.38,1.34-1.3,1.33-4.07-.09-3.25.58-3.33-3.14,0-1.58,0-3.16,0-4.75Z"/><path class="cls-4" d="M261.38,49.62c-.6,1.15-1.19,2.39-1.87,3.57-2,3.44-4.09,6.85-7.43,9.16a46.27,46.27,0,0,1-6.14,3.38,3.05,3.05,0,0,1-3.75-1.17c-.53-1.25.36-3,1.82-3.67,4.54-2.06,8.51-4.92,10.87-9.37a21.54,21.54,0,0,0,3-10.54c-.08-4.4,0-8.81,0-13.22,0-1,.33-1.35,1.34-1.31s2.1-.16,3.16-.16c.87,0,1.21.48,1.2,1.39,0,3.55.09,7.11-.06,10.66A12.26,12.26,0,0,0,265,44.62a34.39,34.39,0,0,0,6.82,9.49c2.31,2.15,4.89,4,7.35,6,.16.13.36.22.51.36,1.81,1.83,1.88,2.3.86,3.57a3,3,0,0,1-4.52.72,48.9,48.9,0,0,1-10.39-9.82C264.32,53.2,262.91,51.53,261.38,49.62Z"/><path class="cls-4" d="M497,49.07V59.31a12.9,12.9,0,0,0,3.12-.09c.39-.09.76-1.12.75-1.72,0-2,.13-2.26,2-2.26h.26c3,0,3,0,2.18,2.84-.21.76-.23,1.57-.38,2.35a4.43,4.43,0,0,1-4.52,3.8h-5.15a3.15,3.15,0,0,1-3.47-3.57c0-1,0-2.07,0-3.1,0-2.39,0-4.78.1-7.17,0-1.3-.68-1.46-1.9-1.24a6.45,6.45,0,0,0,0,2.06c.69,2-.27,3.68-1,5.3a15,15,0,0,1-5.36,6.12,17.57,17.57,0,0,1-4.06,1.58,9.89,9.89,0,0,1-1.36.23,3,3,0,0,1-3.68-2c-.32-1.47,1.07-2.88,2.89-3.33,3.49-.86,6.19-2.82,7.39-6.31a7.93,7.93,0,0,0-.07-3.21c0-.18-.59-.42-.91-.44-1-.06-2,0-3,0s-1.27-.54-1.2-1.4c0-.17.15-.32.16-.48.09-.83-.15-2,.3-2.39s1.64-.09,2.49-.09h18.52a10.5,10.5,0,0,1,2.81.09c1.1.31,1.52,1.46,1.16,2.72a2,2,0,0,1-2,1.56Z"/><path class="cls-4" d="M332.44,43.22c2-.1,5.06-2.43,5.36-4,.05-.28-.32-.71-.6-1-1.65-1.46-3.35-2.86-5-4.35a1.2,1.2,0,0,1-.06-1.19c1.61-2.13,3.33-4.18,4.95-6.31a1.12,1.12,0,0,1,1.81-.28,9.1,9.1,0,0,1,1.87,1.46,1.76,1.76,0,0,1,.1,1.62,40.43,40.43,0,0,1-2.65,3.22c-.11.13-.33.36-.3.39a18.06,18.06,0,0,0,1.86,2.14,1.18,1.18,0,0,0,1.15-.15,11.86,11.86,0,0,0,2-2.47c.44-.79.87-.82,1.5-.41s1.29,1,2,1.36a.89.89,0,0,1,.32,1.46c-1.78,2.35-3.62,4.64-5.4,7a3.8,3.8,0,0,0-.39,1.26,4.06,4.06,0,0,0,1.44-.34,30.89,30.89,0,0,0,2.52-2.21,1,1,0,0,1,1.69.3Q348,43.3,349.3,46c.54,1.12-.05,1.87-1.53,2.08a7.47,7.47,0,0,1-1.74.22,4,4,0,0,1-1.23-.57c-.46-.22-.92-.4-1.39-.6,0,.4-.12.8-.13,1.21s0,1.11,0,1.66c0,4.54,0,9.08,0,13.61,0,1.2-.25,1.9-1.63,1.7a9.46,9.46,0,0,0-1.41,0c-2.15,0-2.3-.22-1.95-2.42a14.92,14.92,0,0,0-.16-1.85c.06-3,.17-6,.24-9.07a29.21,29.21,0,0,0,0-3.86,1.62,1.62,0,0,0-1.16-1,33,33,0,0,0-3.59,0c-1,0-1.53-.27-1.2-1.46A9.06,9.06,0,0,0,332.44,43.22Z"/><path class="cls-4" d="M287.15,62.38c4.22-3.55,5-8.32,4.78-13.46-.88,1.11-1.69,2.29-2.66,3.31-1.62,1.71-3.56,1.36-4.6-.68-.53-1,.11-1.67.69-2.3,1.34-1.48,2.77-2.89,4.09-4.39a5.3,5.3,0,0,0,1.39-2.21,23.69,23.69,0,0,0,.12-4c-.39,0-.9-.12-1.15.08a7.37,7.37,0,0,0-1.23,1.43c-.92,1.24-2.25,1.17-3.49.94-1.73-.32-2.2-2.83-.87-4.29,1.09-1.19,2.19-2.37,3.32-3.53.47-.49.54-.87,0-1.41A16.06,16.06,0,0,1,286.23,30c-.48-.67-.64-1.28.26-1.77a10,10,0,0,0,1.68-1.11c1-.84,1.47-.28,2,.57a9.7,9.7,0,0,0,1,1.28,8.62,8.62,0,0,0,1.13-1.13c1.21-1.75,1.2-1.76,2.83-.53a1.56,1.56,0,0,0,.2.16c2.33,1.6,2.33,1.6.54,3.81a10.18,10.18,0,0,1-1.3,1.54c-1.44,1.18-.84,2.42-.4,3.83a68.75,68.75,0,0,1,2.17,8.2,20,20,0,0,1,.06,5.62,42.07,42.07,0,0,1-1.25,6.38,25.74,25.74,0,0,1-4,8.16,1,1,0,0,1-1.62.08C288.69,64.28,288,63.33,287.15,62.38Z"/><path class="cls-4" d="M435.26,36.1c.55.5,1.07,1,1.65,1.48s1.09.57.43,1.31a.85.85,0,0,0,0,.83,1.09,1.09,0,0,0,.86.28c1.26-.16,1.76.24,1.9,1.63.11,1.17-.38,1.78-1.55,1.79-5.57,0-11.14,0-16.72,0-1.58,0-1.9-.46-1.59-2a6.29,6.29,0,0,0,0-1.15c0-4.58,0-9.15,0-13.73,0-1.09.34-1.38,1.4-1.37,4.26,0,8.51,0,12.77,0a29,29,0,0,1,3.23,0,4.42,4.42,0,0,1,2,.71c.53.36,1,.92.51,1.73A2.76,2.76,0,0,1,437.58,29c-2.52,0-5-.14-7.54-.15-.25,0-.51.4-.77.62.27.21.53.59.8.6,1.89.05,3.78,0,5.68,0a3,3,0,0,1,1.45.28,1.4,1.4,0,0,1,.49,1.12c0,.24-.54.56-.88.61-.62.1-1.3-.06-1.91.07-.38.08-.67.51-1,.79.39.3.77.85,1.17.87,1.13.06,2.28-.17,3.41-.12a3,3,0,0,1,1.53.68,1.17,1.17,0,0,1-.21,1,3.86,3.86,0,0,1-1.68.5,20.75,20.75,0,0,1-2.6-.23Zm-4.63-.46c-1.12.1-2.07.26-3,.26a2.33,2.33,0,0,1-1.48-.45,1.28,1.28,0,0,1-.14-1.28,1.88,1.88,0,0,1,1.29-.48c1-.07,2.06,0,3.08,0a4,4,0,0,0,1.2-.58c-.42-.31-.81-.8-1.28-.9a3.23,3.23,0,0,0-2.85.73c-.8.66-1.33,0-1.62-.57a1.34,1.34,0,0,1,.37-1.29,1.26,1.26,0,0,0,.72-1.68c-.35-1.06-1.34-.54-2-.5a1.56,1.56,0,0,0-1,1.12c-.08,3-.08,6,0,9A1.57,1.57,0,0,0,425,40a18.89,18.89,0,0,0,3.14,0c-.25-.72-.45-1.27-.66-1.88C428.69,37.7,430.17,37.5,430.63,35.64Zm4.18,4.46a4.55,4.55,0,0,0-1.65-2.81.94.94,0,0,0-.73.09c-.72.72-1.38,1.49-2.21,2.42C431.76,40.36,433.31,40,434.81,40.1Z"/><path class="cls-4" d="M221.82,26.47c3.17,0,6.34,0,9.5,0,1.17,0,1.59.43,1.58,1.58,0,3.51,0,7,0,10.52a1.75,1.75,0,0,1-2.17,1.77c-.81-.11-1.64,0-2.46,0-1,0-1.94-.23-2.91-.22-1.87,0-3.74.22-5.61.22s-3.92-.17-5.88-.22a6.33,6.33,0,0,0-1.36.17c-1,.19-1.66-.55-1.57-1.57.12-1.39.08-2.81.08-4.22,0-2.18.05-4.36,0-6.54,0-1.18.26-1.58,1.58-1.51C215.64,26.57,218.73,26.47,221.82,26.47Zm0,4.63c-1.8,0-3.6,0-5.39,0-.35,0-1,.47-1,.75,0,.91.18,1.84.17,2.76s.34,1.1,1.15,1.09c3.43,0,6.85,0,10.28,0,.85,0,1.28-.22,1.21-1.15a16.19,16.19,0,0,1,0-2.31c.06-.88-.27-1.22-1.17-1.19C225.33,31.13,223.58,31.1,221.82,31.1Z"/><path class="cls-4" d="M388.09,35.7a2.94,2.94,0,0,0-.92.31c-2.31,1.84-4.53,3.8-6.93,5.51a3.82,3.82,0,0,1-2.85.48,2.38,2.38,0,0,1-1.66-2.42A2.8,2.8,0,0,1,377.17,37c3.08-2,6.12-4.13,9.09-6.31,1.8-1.33,3.43-2.89,5.16-4.31a2,2,0,0,1,1.13-.4c1.2-.05,2.41.1,3.59-.05,1.63-.2,2.7.59,3.91,1.51,3,2.26,6,4.44,9.16,6.44A68.71,68.71,0,0,0,415.38,37a4.36,4.36,0,0,1,.62.47c-1.19,1.1-2.28,2.21-3.49,3.18a1.61,1.61,0,0,1-1.44.07,60.83,60.83,0,0,1-7.62-4c-2.79-1.93-5.27-4.28-7.87-6.48-.64-.54-1-.53-1.64.15-1.31,1.37-2.83,2.53-4.25,3.8-.56.5-1.09,1-1.64,1.57Z"/><path class="cls-4" d="M397.12,64.23h-6.3a3,3,0,0,1-3.26-3.31c0-2.14,0-4.29,0-6.43,0-.8-.16-1.59-.24-2.39s.15-1.27,1.11-1.25a21.38,21.38,0,0,0,2.64-.23,1.59,1.59,0,0,1,1.9,1.65c0,1.82-.13,3.64-.26,5.46-.07,1.12.28,1.61,1.4,1.61,2.61,0,5.22,0,7.83,0a2,2,0,0,0,2-1.41,7.5,7.5,0,0,0,.32-1.08c.43-1.78,1.68-2.5,3.38-1.81a1.38,1.38,0,0,1,.7,1.05,7.88,7.88,0,0,1-.29,3c-.65,1.65-1.3,3.39-2.81,4.51a3.35,3.35,0,0,1-1.73.59C401.4,64.27,399.26,64.23,397.12,64.23Z"/><path class="cls-4" d="M395.22,42.4h9.89a3,3,0,0,1,2.75,2,1.42,1.42,0,0,1-.17,1.08c-1.29,1.61-2.63,3.19-4,4.73a1,1,0,0,1-.93,0,9.39,9.39,0,0,1-2-2A2,2,0,0,0,398.87,47c-4.54,0-9.07,0-13.61,0-1,0-1.4-.31-1.31-1.32a21.73,21.73,0,0,1,.06-2.43c.07-.39.62-1,1-1,3.41-.07,6.82,0,10.24,0Z"/><path class="cls-4" d="M449.77,34.55c2.08-.12,4.16-.31,6.23-.3a2.77,2.77,0,0,1,2,.88c.52.67-.14,1.32-.72,1.8-.91.75-1.84,1.48-2.73,2.25-.19.16-.4.49-.35.67a1.13,1.13,0,0,0,.6.71c.69.17,1.42.16,2.11.31a5,5,0,0,1,1.87.63,1.6,1.6,0,0,1,.43,1.39,1.35,1.35,0,0,1-1.06.75c-2.49,0-5-.15-7.11-1.69-1-.74-1.87,0-2.81.38a20,20,0,0,1-4.39,1.28A2.24,2.24,0,0,1,442,42.54c-.35-.91.65-1.16,1.37-1.44a16.2,16.2,0,0,0,2.5-1c.6-.35.57-.8-.07-1.29a14.58,14.58,0,0,1-2.32-2.19,1.77,1.77,0,0,1-.43-1.45,1.76,1.76,0,0,1,1.36-.67c1.79-.08,3.6,0,5.4,0Zm2,2.81-.23-.6-3,.22-.18.46c.53.44,1.12,1.29,1.6,1.24C450.64,38.6,451.21,37.83,451.81,37.36Z"/><path class="cls-4" d="M458.21,27.65c1.07.65,2,1.31,2,2.55s-1.56,2.16-2.88,2.18h-4.65c-2.1,0-2.54-.43-2.82-2.48a1.29,1.29,0,0,0-.82-.82,5.56,5.56,0,0,0-1.53,0c-2,0-1.84,0-2.33,2a3.75,3.75,0,0,1-2,2c-.55.25-1.52-.14-2.17-.5s-.8-1-1.24-1.41c-.84-.84-.3-1.11.49-1.33a2,2,0,0,0,1.68-2.65c-.24-1.45.19-2,1.66-2h8.09c1.67,0,2.32.88,2,2.5a2.74,2.74,0,0,0,.18,2c.52.65,2.74.55,3.21,0A15.16,15.16,0,0,0,458.21,27.65Z"/><path class="cls-4" d="M218.59,86.37c-1.05-1.28-.23-3.31-2.05-4.2-.39,1.09-.75,2.17-1.17,3.22a4.85,4.85,0,0,1-.68.92c-.29-.29-.73-.53-.85-.88-.89-2.56-1.68-5.15-2.59-7.7a23.65,23.65,0,0,0-1.34-2.66c-.19-.37-.37-.75-.54-1.1h8.92c-1.12,1.12-1.78,2-.42,3.38l.94-3.07-.32-.15a1.56,1.56,0,0,1,.45-.14c.67,0,1.34,0,2,.05-.29.51-.56,1-.86,1.53-.61,1-1.25,2-1.85,3.07a.85.85,0,0,0,0,.63c.38,1.22.79,2.43,1.19,3.65.22-.07.33-.07.35-.11,1.06-2.24,2.13-4.48,3.17-6.74a3.06,3.06,0,0,0,.17-1.1,1.27,1.27,0,0,1,1.9-1.16,1,1,0,0,1,.27.91c-.5.92-1.18,1.74-1.64,2.67a43.83,43.83,0,0,1-2.39,5.14C220.4,83.78,220.48,85.71,218.59,86.37Zm-2.42-4.28a5,5,0,0,1,0-1.1c.52-2.24-.71-4-1.62-5.83a1.53,1.53,0,0,0-1.34-.38c-.72.19-.84.82-.56,1.51.16.38.28.77.41,1.17.57,1.67,1.13,3.34,1.71,5.05Z"/><path class="cls-4" d="M245.08,50.36a2.47,2.47,0,0,1-2.18-3.71,56.6,56.6,0,0,0,4.87-10.9c.38-1,.92-1.16,1.79-.71a9.56,9.56,0,0,0,1.24.62c1.86.64,2,.76,1.35,2.52-1.36,3.48-2.86,6.9-4.34,10.34A2.78,2.78,0,0,1,245.08,50.36Z"/><path class="cls-4" d="M344,77.7c.12,1.48.22,2.69.33,3.91s-.66,2.49.44,3.58c.09.09-.08.64-.15.65-.89,0-1.79,0-2.69,0a6.39,6.39,0,0,1,.16-1,9.71,9.71,0,0,0,.66-1.92c.17-1.94.24-3.9.27-5.85,0-.85.11-1.79-1.08-2.12-.26-.07-.38-.64-.58-1,2.2-.43,2.82-.09,3.81,1.74s2,3.65,3.13,5.42c.18.29.79.32,1,.41,1.35-2.43,2.55-4.7,3.86-6.92.66-1.12,2.61-1.11,3.59.09-2.11.12-1.63,1.63-1.64,2.87,0,1.54,0,3.08,0,4.62,0,1.26-.3,2.63,1.36,3.21-.83.74-3.16,1-3.84.43-.16-.14-.09-.65,0-1a10.16,10.16,0,0,0,.64-1.93,37.3,37.3,0,0,0,0-4.23,4.91,4.91,0,0,0-.41-1.34l-.34,0A13.73,13.73,0,0,1,352,79c-.87,1.72-1.78,3.42-2.71,5.11-.16.29-.51.47-.77.7a6.89,6.89,0,0,1-.61-.84c-1-2-2.06-3.93-3.11-5.88C344.73,77.91,344.46,77.89,344,77.7Z"/><path class="cls-4" d="M322.45,81.78c.86-1.64,1.52-3,2.22-4.22.42-.77.95-1.47,1.35-2.24a2.81,2.81,0,0,1,2.87-1.57,1.12,1.12,0,0,1,.71.54c.07.14-.23.64-.39.66-1,.1-.84.79-.84,1.42,0,2.35,0,4.7,0,7,0,.49.49.94.64,1.45.1.34.15.93-.05,1.09-.49.41-3.08,0-3.73-.58,1.72-.88,1.28-2.46,1.3-3.91,0-1.24,0-2.47,0-3.8-.77-.16-1.12-.08-1.33.81a5.67,5.67,0,0,1-1.76,3.25c-.3.24-.31.82-.52,1.21a7.14,7.14,0,0,1-1,1.52c-.1.12-.83-.07-.95-.29-.86-1.57-1.63-3.19-2.42-4.79-.3-.61-.57-1.24-.85-1.86l-.38,0a4,4,0,0,0-.3,1.08c.05,1.39.1,2.79.26,4.17.09.75.44,1.47.59,2.21a1.63,1.63,0,0,1-.2.93c-1,0-2.11.56-3-.63,1.42-.7,1.35-1.93,1.32-3.2,0-1.64-.1-3.28,0-4.91.1-1.36-.15-2.4-1.67-2.78a2.35,2.35,0,0,1,3.63.44c1.11,1.91,2.09,3.91,3.21,5.81A4.81,4.81,0,0,0,322.45,81.78Z"/><path class="cls-4" d="M388.05,35.74c3.88-.09,7.76-.25,11.64-.24,1.62,0,2,.56,2,2.2a5.26,5.26,0,0,0,0,.89c.19,1-.21,1.71-1.29,1.73-3.72,0-7.45.06-11.18,0-1.29,0-1.5-.56-1.28-1.93a19.85,19.85,0,0,0,.08-2.68Z"/><path class="cls-4" d="M418,73.93a9.33,9.33,0,0,1,1.18-.18,16.15,16.15,0,0,1,2.2,0,4.54,4.54,0,0,1,1.19.45c-.24.27-.5.53-.73.82a2.4,2.4,0,0,0-.51.77,3.84,3.84,0,0,0,0,1c0,2.13,0,2.1,2.09,2.06.71,0,1.42.23,2.12.21a1.78,1.78,0,0,0,1.23-.46c.66-.79.16-3.06-.71-3.69l-.83-.56c.37-.32.54-.6.72-.61,1.16,0,2.32,0,3.48,0,.21,0,.56.23.59.39a.94.94,0,0,1-.27.76c-1.08.6-.92,1.46-.83,2.49a30.51,30.51,0,0,1,0,5.49,1.92,1.92,0,0,0,.51,1.91,1,1,0,0,1,.31.86c-.09.22-.54.37-.84.39a16.19,16.19,0,0,1-2.31,0,2.5,2.5,0,0,1-.85-.45,4.18,4.18,0,0,1,.53-.72c.8-.72,1.08-3.82.36-4.63a1.16,1.16,0,0,0-.77-.29,27.39,27.39,0,0,0-3.51.12,1.44,1.44,0,0,0-1,.91,9.78,9.78,0,0,0-.22,2.75c0,.43.52.82.79,1.24.14.22.42.53.35.65a1,1,0,0,1-.68.42,7.66,7.66,0,0,1-1.79,0,10.61,10.61,0,0,1-1.54-.41,8,8,0,0,0,.74-1,3.5,3.5,0,0,0,.48-1.39c.06-1.72,0-3.45,0-5.17,0-1.52-.1-2.92-1.73-3.76Z"/><path class="cls-4" d="M270.19,45.27c-.66-.53-1.19-1-1.73-1.39-1.88-1.5-1.85-1.47-.16-3.07,2.39-2.25,4.77-4.51,7.08-6.83a1.2,1.2,0,0,1,1.76-.2c.63.41,1.26.82,1.92,1.19.93.52,1.06,1.21.29,2-2.24,2.19-4.47,4.38-6.75,6.52A26.92,26.92,0,0,1,270.19,45.27Z"/><path class="cls-4" d="M253.85,74.26c.93-.62,4.43-.43,5,.15,0,.08,0,.22,0,.23-1.39.27-1.53,1.22-1.48,2.43.08,2,.07,3.93,0,5.89,0,1.06.08,1.94,1.24,2.33-.81,1-3.18,1.09-4.29.12,1.68-1.21,1.43-2.87,1-4.55-.16-.66-.43-1.08-1.34-.84a11.33,11.33,0,0,1-2.8.13c-.85,0-1.31.4-1.24,1.24.11,1.23-.54,2.59.8,3.62.53.41.21,1-.46,1a20.12,20.12,0,0,1-2.69,0,.92.92,0,0,1-.68-.42c-.07-.12.17-.5.36-.64a2.09,2.09,0,0,0,.88-2c-.06-2.09.06-4.19-.07-6.28,0-.63-.63-1.23-1-1.83a5.9,5.9,0,0,0-.5-.62c.25-.18.49-.5.75-.51,1-.06,2.06-.05,3.09,0,.26,0,.7.24.7.39a1.17,1.17,0,0,1-.36.84c-.68.61-1.27,2.88-.75,3.53a2.12,2.12,0,0,0,1.33.55c.85.09,1.72,0,2.58,0s1.3.07,1.48-.9A3.41,3.41,0,0,0,253.85,74.26Z"/><path class="cls-4" d="M117.16,73.73c-.15.48-.16,1-.37,1.11-1.67.77-.93,2.22-1,3.38,0,.86.79.94,1.54.89a18.36,18.36,0,0,1,2.46,0c.71.06,1.24,0,1.51-.79a3.14,3.14,0,0,0-1.13-3.67,2.74,2.74,0,0,1-.4-.47c.29-.17.51-.42.74-.43,1.08,0,2.16,0,3.23,0a1,1,0,0,1,.69.43c.06.11-.24.42-.36.65-.29.54-.8,1.08-.83,1.64-.09,2.22-.09,4.45,0,6.67A3.71,3.71,0,0,0,124,85c.39.57.23,1-.29,1a29.46,29.46,0,0,1-3.06-.07,33.51,33.51,0,0,0,.73-4c.1-1.8-.16-1.95-1.89-1.85-.9,0-1.8,0-2.7,0a1.21,1.21,0,0,0-.87.48,5,5,0,0,0,.71,4.36l.33.38c-.68.71-3.34,1-4,.39a.82.82,0,0,1,.1-.77,2.14,2.14,0,0,0,.91-2.09c0-2.1,0-4.19,0-6.29a1.54,1.54,0,0,0-1-1.72c-.24-.1-.38-.45-.56-.69.26-.16.52-.45.79-.47C114.49,73.7,115.73,73.73,117.16,73.73Z"/><path class="cls-4" d="M182,85.86h-3.83c1.32-1.39,1-3,1-4.47,0-1.33-.05-2.66,0-4,.06-1.13-.09-2.09-1.23-2.65a.65.65,0,0,1-.28-.57c.07-.19.38-.45.54-.42a3.67,3.67,0,0,1,1.86.54c2,2.08,3.86,4.27,5.81,6.4a12.52,12.52,0,0,0,1.42,1.18l.28-.25a21.1,21.1,0,0,1-.12-4.12c.22-1.46-.85-2.42-1.21-3.79,1.22,0,2.21,0,3.19,0a1,1,0,0,1,.73.51c.08.15-.16.61-.36.7-1,.46-.85,1.22-.76,2.12a41.44,41.44,0,0,1,.09,4.46c0,1.1-.1,2.2-.18,3.29a6.41,6.41,0,0,1-.25,1c-.32-.12-.74-.16-.94-.39-.93-1.08-1.76-2.26-2.71-3.32-1.4-1.58-2.87-3.09-4.58-4.92,0,2.52-.08,4.67.06,6.81C180.5,84.58,181.25,85.05,182,85.86Z"/><path class="cls-4" d="M376.79,61.48c.32-.53.66-1,1-1.58,1.07-1.79,2.17-3.57,3.19-5.39,1.35-2.42,1.66-2.54,4.08-1.15,1.46.85,1.54,1.32.67,2.85-1.25,2.21-2.44,4.46-3.65,6.69a2.42,2.42,0,0,1-2.64,1.46C377.61,63.93,376.81,62.87,376.79,61.48Z"/><path class="cls-4" d="M132,73.84A3.43,3.43,0,0,1,135.45,75c1.07,1.2,2.1,2.43,3.16,3.65l3,3.44a5.1,5.1,0,0,0,.38-1.23c.05-1.24,0-2.48,0-3.72,0-1,.21-2-1.06-2.43a.59.59,0,0,1-.18-.51,1.2,1.2,0,0,1,.67-.46,18.37,18.37,0,0,1,2.46,0,.87.87,0,0,1,.63.47c0,.14-.29.4-.41.63-.29.51-.77,1-.78,1.54,0,1.48.22,3,.19,4.44,0,1.69-.23,3.38-.39,5.47-2.89-2.75-5.07-5.9-7.68-8.62l-.41.2c.06.68.13,1.37.17,2,0,.94,0,1.87.08,2.81a6.62,6.62,0,0,0,.29,2c.4,1,.27,1.35-.8,1.34-.76,0-1.52-.13-2.49-.22,1.66-1.7,1.16-3.53,1.23-5.26,0-1.22.27-2.45.19-3.66a4.76,4.76,0,0,0-.87-1.84A13.57,13.57,0,0,0,132,73.84Z"/><path class="cls-4" d="M382.29,85.72a1.87,1.87,0,0,1-2.73-.51c-1-1.36-1.95-2.73-3-4a1.24,1.24,0,0,0-1.06-.42,1.28,1.28,0,0,0-.52,1c0,1.33-.41,2.79,1.06,3.68-.69.7-3.4.9-4,.33a.78.78,0,0,1,0-.68c1.07-.57.94-1.43.87-2.46-.14-2.08-.06-4.18,0-6.28,0-.68,0-1.24-.82-1.51a.78.78,0,0,1-.41-.62c0-.15.38-.48.5-.44,2.11.74,4.35-.73,6.46.45,1,.55,2.17,1,2.2,2.27a3.22,3.22,0,0,1-1.54,2.83c-.77.49-1.35.94-.34,2A41.54,41.54,0,0,1,382.29,85.72ZM375,77.36a3.21,3.21,0,0,0,0,.76c.16.59.36,1.17.55,1.76.75-.31,1.52-.58,2.24-.93a1.14,1.14,0,0,0,.5-.7c.15-.67.51-1.49.27-2a2.35,2.35,0,0,0-3-1.13c-.39.24-.38,1.14-.53,1.75A2.17,2.17,0,0,0,375,77.36Z"/><path class="cls-4" d="M337.29,53.84c-.32,2.33-.54,4.67-1,7a3,3,0,0,1-2.47,2.58,2.09,2.09,0,0,1-2.32-1.34c-.23-.55-.46-1.4-.2-1.78,1.05-1.54.47-3.31.89-4.93a35,35,0,0,0,.55-4c0-.13,0-.35.07-.36a28.71,28.71,0,0,1,3.57-.33c.25,0,.61.76.7,1.22a10.12,10.12,0,0,1,0,1.91Z"/><path class="cls-4" d="M444,80.09a6.49,6.49,0,0,1-6.22,6.64A6.72,6.72,0,0,1,431.32,80c-.08-2.88,3.21-6.4,5.32-6.31s4,.21,5.51,2A7.33,7.33,0,0,1,444,80.09Zm-1.91,0a21.32,21.32,0,0,0-.84-3,3.84,3.84,0,0,0-6.26-1.15c-1.43,1.6-1.4,3.62-1.25,5.61s1.5,3.19,3.08,4.11a2,2,0,0,0,1.69,0C440.56,84.43,442.06,82.76,442,80.06Z"/><path class="cls-4" d="M358,80.09c0-3.11,2.43-6.38,4.75-6.35,2.1,0,4.18-.13,5.77,1.82a7.58,7.58,0,0,1,1.86,4.9c.08,3.24-3.29,6.3-6.17,6.31C361.47,86.77,357.5,84.2,358,80.09Zm1.7-.11.26.16c.12.78.19,1.58.36,2.35.3,1.28,2.33,3.28,3.42,3.29a4.36,4.36,0,0,0,3.52-2.08c1.39-1.81,1.27-3.9.7-5.9a3.73,3.73,0,0,0-3.25-3c-1.32-.09-2.87-.07-3.56,1.54C360.61,77.56,360.15,78.78,359.67,80Z"/><path class="cls-4" d="M176.26,80a6.22,6.22,0,0,1-12,2.72c-1.18-3,.65-7.59,3.56-8.88,2.19-1,6,.4,7.3,2.5C175.87,77.53,176.57,78.71,176.26,80Zm-10-.22c0,1,0,1.62,0,2.26.08,1.71,2.57,4.17,4.15,3.7a5.9,5.9,0,0,0,3-2.39,6.15,6.15,0,0,0-.45-7.21,3.75,3.75,0,0,0-5.55-.16A4.72,4.72,0,0,0,166.23,79.75Z"/><path class="cls-4" d="M260.07,80.1c-.33-3,1.56-4.58,3.63-6.09a1.33,1.33,0,0,1,.34-.16c2.07-.81,5.51.32,6.9,2a6.93,6.93,0,0,1,1.25,6.25,5.57,5.57,0,0,1-3.47,3.92,6.22,6.22,0,0,1-8.31-3.47A8.64,8.64,0,0,1,260.07,80.1Zm10.13.46c0-.86,0-1.42,0-2-.05-1.33-1.42-3.35-2.43-3.56-2.23-.48-3.67-.07-4.72,1.5s-.79,3-.82,4.5a5.27,5.27,0,0,0,3.3,4.71,2.17,2.17,0,0,0,1.59-.14C269.11,84.4,270.75,82.93,270.2,80.56Z"/><path class="cls-4" d="M156.17,79.48l6.67,6.15a1.9,1.9,0,0,1-2.64-.08c-1.41-1.38-2.78-2.79-4.21-4.15-.24-.23-.7-.24-1.06-.35a6.76,6.76,0,0,0-.09,1,12.12,12.12,0,0,0,.26,2.25,5.86,5.86,0,0,0,.77,1.4l-2.05.35a1.3,1.3,0,0,1-.52,0c-.49-.13-1-.3-1.46-.45a6.67,6.67,0,0,0,.76-1,3.46,3.46,0,0,0,.48-1.38c0-2.14.07-4.28,0-6.42,0-.72,0-1.64-1.09-1.85-.23,0-.36-.65-.64-1.21,1.55,0,2.83,0,4.11,0a.87.87,0,0,1,.67.43.79.79,0,0,1-.29.73c-1.59.67-.6,2.22-1.17,3.22.46.08,1.08.38,1.34.19a10,10,0,0,0,2.05-2A15,15,0,0,0,159.23,74c.44,0,1.32-.18,2.19-.21a.81.81,0,0,1,.63.47,1,1,0,0,1-.34.73c-1,.81-2.06,1.56-3.07,2.37C157.89,77.93,157.18,78.6,156.17,79.48Z"/><path class="cls-4" d="M407.13,53.29c.91-.81,1.75-1.66,2.7-2.36a1.34,1.34,0,0,1,1.28,0c1.46,1.79,2.85,3.63,4.2,5.5a9.1,9.1,0,0,1,1.05,2.09,2.63,2.63,0,0,1-1.7,3.39c-1.07.38-2.33-.42-2.92-1.7a29.38,29.38,0,0,0-2.08-4A29,29,0,0,0,407.13,53.29Z"/><path class="cls-4" d="M289.47,74.09a6.08,6.08,0,0,1,1.19-.35c.95,0,1.9,0,2.84,0a2.72,2.72,0,0,1,.87.4c-.17.24-.34.49-.49.74-.26.46-.72.92-.74,1.39-.08,2.13,0,4.27,0,6.41a3.23,3.23,0,0,0,2.32,3A2.4,2.4,0,0,0,298,85a3.4,3.4,0,0,0,1.23-2.85c0-2.08-.09-4.16-.27-6.22-.05-.56-.56-1.08-.93-1.72,0,0,.15-.33.28-.34,1.06,0,2.14-.09,3.21,0a.79.79,0,0,1,.52.57.84.84,0,0,1-.46.64c-1.18.35-1,1.26-1,2.15a59.57,59.57,0,0,1-.15,6.55c-.18,1.61-2.71,3.2-4.49,3.15-2.16-.07-4.43-1.55-4.77-3.41a22.94,22.94,0,0,1,0-3.8,30.06,30.06,0,0,0-.21-4.14C290.89,75,290.16,74.71,289.47,74.09Z"/><path class="cls-4" d="M164.1,36.35a1.87,1.87,0,0,1-.26.33,31.16,31.16,0,0,1-2.48,2.4,1.24,1.24,0,0,1-1.19-.09c-2.08-2.17-4.06-4.43-6.18-6.56-.81-.82-.69-1.31.09-1.94a10.08,10.08,0,0,1,1.76-1.41,1.72,1.72,0,0,1,1.57.1c2.14,2.1,4.19,4.28,6.27,6.45A4.44,4.44,0,0,1,164.1,36.35Z"/><path class="cls-4" d="M198.77,80.79c1.08-.12,2.17-.27,3.26-.35.2,0,.59.16.61.3.06.29,0,.79-.15.91-.94.59-.79,1.5-.74,2.35.08,1.26-.28,1.69-1.67,2.21a6.66,6.66,0,0,1-4.92-.16,6.53,6.53,0,0,1-4-5.44c-.31-3.22,1.56-5,3.87-6.59a2.39,2.39,0,0,1,1.2-.28c.94,0,1.89,0,2.83,0,2.21,0,2.54.31,2.93,3-.59-.24-1.25-.29-1.48-.63-1.3-1.94-3.19-1.33-4.79-.93s-2.2,2-2.39,3.45c-.26,2-.59,4.3,1.55,5.53a11.08,11.08,0,0,0,4.26,1.09c.82.09,1.22-2.37.49-3.18a7.62,7.62,0,0,0-1.2-.89Z"/><path class="cls-4" d="M331,73.73c2.68,0,5,0,7.39,0a2,2,0,0,1,1.83,1.9,1.1,1.1,0,0,1-.4.83c-.19.09-.64-.12-.83-.33-.81-.92-3.23-1.56-4.25-1.07-.11.05-.29.16-.28.23a17.5,17.5,0,0,0,.35,3.57c.17.61,2.28.33,3-.27a4.83,4.83,0,0,1,1-.47,4,4,0,0,1,.39,1.23,14.29,14.29,0,0,1-.36,2,6.52,6.52,0,0,0-1.45-1.3,4.53,4.53,0,0,0-2-.29c-.26,0-.67.48-.72.78a28.06,28.06,0,0,0-.27,3.16.92.92,0,0,0,.3.65c.82.75,3.61.5,4.38-.33a4.43,4.43,0,0,1,.83-.55,3.37,3.37,0,0,1,.37.89c.16,1.6-.18,2-1.85,1.9q-2.93-.09-5.85-.27a3.35,3.35,0,0,1-1-.39c.15-.32.31-.65.45-1a4.66,4.66,0,0,0,.52-1.46c.06-2.22.08-4.45,0-6.66,0-.53-.5-1-.78-1.55Z"/><path class="cls-4" d="M237,79.37c0-.9-.05-1.8,0-2.7a1.62,1.62,0,0,0-1-1.81c-.23-.1-.33-.48-.49-.72a2.69,2.69,0,0,1,.87-.39,15.1,15.1,0,0,1,2.33,0,2.77,2.77,0,0,1,.86.4c-.17.25-.34.49-.49.74-.27.46-.72.92-.74,1.39-.07,2.23,0,4.45,0,6.68a3.61,3.61,0,0,1-2.47,3.14c-1.36.52-2.54.94-4.07.27-2.56-1.14-2.77-2-2.95-4.31a53.48,53.48,0,0,1,0-5.52,1.48,1.48,0,0,0-.93-1.61c-.27-.12-.4-.52-.6-.79a2.57,2.57,0,0,1,.87-.39,26.72,26.72,0,0,1,3.1,0c.3,0,.58.34.88.52-.19.24-.33.61-.57.7-1.05.4-.93,1.28-.94,2.1,0,1.2,0,2.41,0,3.61,0,1.63-.07,3.24,1.48,4.34.86.61,1.93,1.25,2.78.62,1-.78,2.19-1.74,2.16-3.33C237,81.34,237,80.35,237,79.37Z"/><path class="cls-4" d="M491.3,41.37c-1.63,0-3.26,0-4.89,0-1.21,0-1.54-.47-1.33-1.72a4,4,0,0,0,0-.77c-.07-1.13.38-1.62,1.47-1.61,1.59,0,3.18,0,4.77,0s2.93,0,4.39,0c1,0,1.47.34,1.49,1.4,0,2.72.08,2.72-2.71,2.72Z"/><path class="cls-4" d="M455.17,73.73c1.84,0,3.69,0,5.53,0a4.38,4.38,0,0,1,3.43,2.56c.46,1.49-.14,2.8-1.53,3.91a2.67,2.67,0,0,1-3.47.4,10.49,10.49,0,0,1,1.3-.85,2.71,2.71,0,0,0,1.77-2.71,2.45,2.45,0,0,0-2.34-2c-1.62-.19-1.84-.05-1.76,1.59.06,1.25.36,2.48.45,3.73a5.16,5.16,0,0,1-.26,1.73c-.34,1.21-.55,2.34,1,3a.72.72,0,0,1,.32.55c0,.15-.24.43-.38.43-1.31,0-2.62,0-4.16-.06,2.2-3.35.87-6.69,1.21-9.86,0-.31-.39-.68-.62-1s-.53-.69-.79-1Z"/><path class="cls-4" d="M491.81,85.41c.55-1.76.42-2.11-1.11-3.21-.08-2.14-1.08-3.78-2.28-5.78-.56,1.69-1,3-1.37,4.32,0,.15.5.58.83.67a19.26,19.26,0,0,1,2.36.64c-.78,1-1.82.69-2.73.57a1.87,1.87,0,0,0-2.15,2.17,2.61,2.61,0,0,1-.1,1.15c-.78,0-1.56-.09-2.34-.16,0-.25,0-.58.13-.73,1.47-1.5,2-3.47,2.84-5.31.55-1.21,1.18-2.39,1.73-3.6a8.49,8.49,0,0,1,.43-1.29,1.88,1.88,0,0,1,1.08-.8c.24,0,.69.45.85.8,1.43,3.11,2.82,6.23,4.23,9.35.25.55,1.36.74.74,1.63C494.59,86.34,492.82,86.1,491.81,85.41Z"/><path class="cls-4" d="M444.92,83.57a32.44,32.44,0,0,1,2.76,1.77,1.58,1.58,0,0,0,2.25,0c2.51-2,1.29-3-.53-4.28a38,38,0,0,1-4-3.26,1.78,1.78,0,0,1-.28-1.7c.84-1.38,1.88-2.6,3.8-2.39.81.08,1.63,0,2.45,0s2.14,1.16,2,2c0,.37-.42.69-.64,1-.29-.19-.67-.31-.84-.58a3.08,3.08,0,0,0-4.24-1c-1,.58-.83,2.06.28,2.83,1.34.94,2.65,1.92,4.05,2.76,2.64,1.59,1.43,4-.59,5.19a5.4,5.4,0,0,1-5.63,0C444.56,85.28,444.35,84,444.92,83.57Z"/><path class="cls-4" d="M396.31,82.53a5.48,5.48,0,0,1-1.59.16c-1.4-.27-2.58-.1-3.38,1.11,0,.73.22,2,0,2.08-.73.3-1.74.55-2.14-.09L395,73.48c.47.42.81.59.94.86,1.08,2.36,2.08,4.75,3.18,7.1.52,1.12,1.23,2.15,1.82,3.24.15.3.33.73.22,1a1.09,1.09,0,0,1-.89.37,22.5,22.5,0,0,1-2.24-.33c.53-1.51.3-2.53-.85-3.3-.22-.15-.26-.58-.38-.87-.58-1.42-1.15-2.85-1.76-4.26-.08-.17-.43-.23-.58-.31-.49,1.43-1,2.81-1.47,4.24l3.31.62Z"/><path class="cls-4" d="M178.71,39.25a9,9,0,0,1-.94-.62c-.32-.28-.6-.6-.91-.9-1.4-1.33-1.33-1.26-.09-2.69s2.59-3.3,3.86-5c.2-.27.34-.58.54-.85.55-.73,2.09-.29,3.66,1.13.61.55.45,1.06-.11,1.72-1.76,2.08-3.4,4.26-5.1,6.39A6.68,6.68,0,0,1,178.71,39.25Z"/><path class="cls-4" d="M283.68,87c-1-.39-2.08-.74-3.1-1.2a2.37,2.37,0,0,1-.48-2.52c.4-.49.68-.35,1,.17A20.55,20.55,0,0,0,283,85.57a.69.69,0,0,0,.31.2c.78.27,2.51-.73,2.95-1.73a1.78,1.78,0,0,0-.87-2.36c-1.41-1-2.79-2-4.2-3s-1.45-2.31,0-3.8c1.75-1.83,3.84-1,5.77-1,.49,0,1.1,1.2,1.52,1.94.1.17-.33.66-.52,1-.33-.19-.78-.3-1-.58a3.52,3.52,0,0,0-4.28-1.13c-.91.51-.77,2.22.26,2.94,1.37,1,2.72,2,4.16,2.83a2.25,2.25,0,0,1,1.32,2.59,6.3,6.3,0,0,1-2,2.55A9.67,9.67,0,0,1,283.68,87Z"/><path class="cls-4" d="M477.64,79.8c0,1,0,2,0,3a2.15,2.15,0,0,0,1,2.3c.09,0-.07.79-.14.79a22.26,22.26,0,0,1-3.65,0c-.7-.07-.75-.72-.14-1,.92-.5,1.05-1.12,1-2.14-.12-1.37.16-2.78.17-4.17a10.7,10.7,0,0,0-.31-3c-.09-.29-1-.54-1.5-.47a4.83,4.83,0,0,0-1.74.87,4.26,4.26,0,0,0-.81.88c-.25-.38-.67-.73-.72-1.13-.17-1.38.38-2,1.75-1.94s2.53.23,3.8.23,2.79-.2,4.19-.23a1.86,1.86,0,0,1,1.87,2.61c-.07.19-.38.46-.48.43a2.86,2.86,0,0,1-.88-.54c-.45-.39-.81-1.08-1.3-1.18-1.83-.35-2-.1-2,1.79Z"/><path class="cls-4" d="M103.1,83.15c.64.69,1.26,1.39,1.92,2.06.91.91,1.86.86,2.84-.11,1.44-1.42,1.6-2.06.57-2.89s-2.26-1.6-3.38-2.4a8.3,8.3,0,0,1-1.2-.92c-.76-.8-1.65-1.69-1-2.87s1.52-2.37,3.2-2.3c.77,0,1.55,0,2.32,0,1.85,0,2.55.75,2.44,3a5.52,5.52,0,0,1-1.46-.73,3.16,3.16,0,0,0-3.72-.91,1.3,1.3,0,0,0-.71,2,13.31,13.31,0,0,0,2.29,2.07c.92.73,2,1.29,2.83,2.09a2.71,2.71,0,0,1-.92,4.63l-1.82.79c-1.76.72-4.48-.68-4.81-2.51a2.82,2.82,0,0,1,.19-1Z"/><path class="cls-4" d="M496.12,74h4.93c-.11.36-.12.48-.16.49-1.62.6-1.36,2-1.38,3.24,0,2-.21,3.91-.11,5.85,0,.41.93,1,1.5,1.12,1.48.25,3,.26,3.65-1.78a2.4,2.4,0,0,1,.41,2.83c-.17.33-1.14.31-1.75.32-1.67,0-3.34,0-5,0a3.58,3.58,0,0,1-1.14-.08c-.61-.23-1-.66-.24-1.15s.84-1,.72-1.86a33.13,33.13,0,0,1,.09-4.45c0-1.31.66-2.81-1.11-3.62C496.29,74.79,496.23,74.28,496.12,74Z"/><path class="cls-4" d="M402.12,85.5c1.77-.88,1.7-2.11,1.67-3.38-.05-1.83,0-3.67,0-5.5a1.54,1.54,0,0,0-1-1.72c-.24-.1-.37-.45-.55-.69.26-.16.52-.44.8-.46,1.07,0,2.15,0,3.22,0a.89.89,0,0,1,.61.43.64.64,0,0,1-.2.59c-1,.82-1.07,1.79-.92,3.06a28.27,28.27,0,0,1-.19,5.19A1.43,1.43,0,0,0,407,84.77c1.26.07,2.55.28,3.38-1.06.09-.15.43-.16.82-.29v1.74c0,.89-.52,1.19-1.33,1.15-2-.09-4-.15-6-.27A10.21,10.21,0,0,1,402.12,85.5Z"/><path class="cls-4" d="M346.42,50.62c1.09-.23,1.71.32,2.06,1.51.47,1.59,1.14,3.12,1.63,4.71.08.26-.26.81-.56,1-.63.4-1.36.63-2,1-.87.45-1.39.06-1.61-.72-.49-1.75-.91-3.52-1.33-5.29C344.08,50.71,344.16,50.62,346.42,50.62Z"/><path class="cls-4" d="M383.2,74a6.48,6.48,0,0,1,1.15-.22,24.48,24.48,0,0,1,2.57,0,1.49,1.49,0,0,1,.9.4c.08.07-.19.51-.3.78a7.41,7.41,0,0,0-.7,1.9c-.15,2.28-.21,4.57-.21,6.85,0,.42.5.83.73,1.27.12.22.29.52.22.71a.85.85,0,0,1-.64.38,13.59,13.59,0,0,1-2.3,0c-.32,0-.6-.34-.9-.53a3.55,3.55,0,0,0,.55-.74,4.74,4.74,0,0,0,.51-1.6c.05-1.44,0-2.9,0-4.34-.05-1.67.62-3.57-1.76-4.47Z"/><path class="cls-4" d="M469.73,73.73c-.09.46-.05.89-.22,1-1.11.74-.84,1.85-.88,2.89-.07,1.95-.2,3.9-.22,5.85,0,.42.4.86.64,1.27s.39.56.59.84c-.35.16-.72.48-1.05.45-1.07-.13-2.31.53-3.31-.65,2.14-1.41,1.6-3.44,1.35-5.44a19.65,19.65,0,0,1,0-3.07c0-.84,0-1.62-1-2a.59.59,0,0,1,.2-1.15C467.05,73.71,468.29,73.73,469.73,73.73Z"/><path class="cls-4" d="M126.09,74a4.28,4.28,0,0,1,.92-.23,24.67,24.67,0,0,1,2.58,0,4,4,0,0,1,1.09.42,6.76,6.76,0,0,0-.61.8,2.94,2.94,0,0,0-.62,1.2c-.13,2.5-.21,5-.2,7.49,0,.45.59.86.81,1.34.13.27.21.79.06.93-.47.43-3.16,0-3.76-.52a2.84,2.84,0,0,0,1.07-2.93,30.86,30.86,0,0,1-.07-5c0-1.25.28-2.59-1.53-3.14Z"/><path class="cls-4" d="M402.24,53.53c0,1-1.84,2.93-2.59,3a1,1,0,0,1-.65-.28c-1-1-1.94-2.14-3-3.16-.68-.67-.66-1.21,0-1.81.39-.34.67-.87,1.11-1.05a1.93,1.93,0,0,1,1.56,0A35,35,0,0,1,402,53,1.06,1.06,0,0,1,402.24,53.53Z"/><path class="cls-4" d="M273.69,80.56a17.47,17.47,0,0,0,1.77.08,21.21,21.21,0,0,1,2.37-.19,3.92,3.92,0,0,1,1.36.67c-.32.3-.61.85-.95.87a24.88,24.88,0,0,1-3.86-.06c-.36,0-.67-.56-1-.86Z"/><path class="cls-4" d="M448.54,59.6c-4.73,0-9.46,0-14.19,0a17,17,0,0,1-2,.2,2.8,2.8,0,0,1-1.74-.7,1.8,1.8,0,0,1-.15-1.73c.3-.36,1.15-.35,1.77-.38,1.52-.08,3.05-.13,4.58-.13,2.38,0,4.76,0,7.14.05,1.44,0,2.88,0,4.32,0,.54,0,1.37,0,1.54.31a2.66,2.66,0,0,1,.17,1.92c-.13.4-.85.61-1.31.9Z"/></svg>